<svg xmlns="http://www.w3.org/2000/svg" width="900" height="620" viewBox="0 0 900 620" role="img" aria-label="DeWalt 20V MAX XR combo kit illustration"><rect width="900" height="620" fill="#ffffff"/><rect x="88" y="78" width="724" height="300" rx="26" fill="#141414"/><rect x="88" y="78" width="724" height="108" rx="26" fill="#f9c900"/><text x="450" y="151" text-anchor="middle" font-family="Arial Black,Arial,sans-serif" font-size="62" fill="#171717">DeWALT</text><rect x="332" y="334" width="236" height="112" rx="18" fill="#202020"/><rect x="355" y="356" width="190" height="68" rx="10" fill="#2d2d2d"/><text x="450" y="400" text-anchor="middle" font-family="Arial Black,Arial,sans-serif" font-size="24" fill="#f9c900">20V MAX XR</text><g transform="translate(92 232)"><rect x="36" y="62" width="46" height="190" rx="18" fill="#222"/><rect x="30" y="42" width="196" height="82" rx="24" fill="#f9c900"/><rect x="126" y="30" width="102" height="62" rx="18" fill="#2b2b2b"/><rect x="48" y="76" width="96" height="36" rx="6" fill="#151515"/><text x="96" y="103" text-anchor="middle" font-family="Arial Black,Arial,sans-serif" font-size="25" fill="#f9c900">XR</text><rect x="78" y="238" width="120" height="42" rx="7" fill="#f9c900"/><rect x="104" y="248" width="72" height="22" rx="5" fill="#333"/></g><g transform="translate(610 232)"><rect x="64" y="62" width="46" height="190" rx="18" fill="#222"/><rect x="0" y="42" width="208" height="82" rx="24" fill="#f9c900"/><rect x="2" y="54" width="78" height="56" rx="13" fill="#2b2b2b"/><polygon points="205,55 270,82 205,109" fill="#2b2b2b"/><rect x="78" y="238" width="120" height="42" rx="7" fill="#f9c900"/><rect x="104" y="248" width="72" height="22" rx="5" fill="#333"/></g><text x="450" y="540" text-anchor="middle" font-family="Arial, sans-serif" font-size="28" font-weight="700" fill="#333">20V MAX XR Hammer Drill + Impact Driver Combo Kit</text></svg>