<svg xmlns="http://www.w3.org/2000/svg" width="900" height="620" viewBox="0 0 900 620" role="img" aria-label="Milwaukee M18 FUEL combo kit illustration"><rect width="900" height="620" fill="#ffffff"/><rect x="375" y="82" width="420" height="305" rx="22" fill="#cf202e"/><text x="585" y="180" text-anchor="middle" font-family="Arial Black,Arial,sans-serif" font-size="74" font-style="italic" fill="#fff">Milwaukee</text><polygon points="455,215 665,178 540,250 735,215 465,325 585,245" fill="#fff" opacity="0.95"/><rect x="535" y="282" width="158" height="52" rx="10" fill="#161616"/><text x="614" y="319" text-anchor="middle" font-family="Arial Black,Arial,sans-serif" font-size="32" fill="#ffffff">M18 FUEL</text><g transform="translate(80 118)"><rect x="122" y="120" width="50" height="230" rx="20" fill="#222"/><rect x="78" y="72" width="250" height="105" rx="28" fill="#cf202e"/><rect x="76" y="75" width="105" height="90" rx="22" fill="#252525"/><rect x="185" y="95" width="82" height="50" rx="8" fill="#fff"/><text x="226" y="130" text-anchor="middle" font-family="Arial Black,Arial,sans-serif" font-size="24" fill="#cf202e">FUEL</text><polygon points="58,112 14,92 14,132" fill="#252525"/><rect x="108" y="335" width="132" height="50" rx="8" fill="#cf202e"/><rect x="138" y="348" width="78" height="24" rx="4" fill="#202020"/></g><g transform="translate(480 395)"><rect x="0" y="0" width="120" height="80" rx="12" fill="#181818"/><rect x="22" y="12" width="76" height="36" rx="7" fill="#cf202e"/><text x="60" y="39" text-anchor="middle" font-family="Arial Black,Arial,sans-serif" font-size="20" fill="#fff">M18</text><text x="60" y="66" text-anchor="middle" font-family="Arial,sans-serif" font-size="14" fill="#fff">BATTERY</text></g><g transform="translate(635 395)"><rect x="0" y="0" width="120" height="80" rx="12" fill="#181818"/><rect x="22" y="12" width="76" height="36" rx="7" fill="#cf202e"/><text x="60" y="39" text-anchor="middle" font-family="Arial Black,Arial,sans-serif" font-size="20" fill="#fff">M18</text><text x="60" y="66" text-anchor="middle" font-family="Arial,sans-serif" font-size="14" fill="#fff">BATTERY</text></g><rect x="670" y="430" width="160" height="75" rx="14" fill="#cf202e"/><text x="750" y="475" text-anchor="middle" font-family="Arial Black,Arial,sans-serif" font-size="22" fill="#fff">CHARGER</text><text x="450" y="560" text-anchor="middle" font-family="Arial, sans-serif" font-size="28" font-weight="700" fill="#333">M18 FUEL Hammer Drill + Impact Driver Kit</text></svg>